# xmcd
#
# Track frame offsets:
#	150
#	15186
#	36802
#	55818
#	78501
#	94464
#	110942
#	130666
#	155046
#	174449
#	191696
#	209920
#	224341
#
# Disc length: 3190 seconds
#
# Revision: 1
# Processed by: cddbd v1.5.2PL0 Copyright (c) Steve Scherf et al.
# Submitted via: audiograbber 1.83.01
#
DISCID=bc0c740d
DTITLE=John Williamson - 40 Years True Blue [Disc 2] - Absolute Tribute
DYEAR=2010
DGENRE=Country
TTITLE0=Wendy Matthews - Flower On The Water
TTITLE1=The Waifs - Salisbury Street
TTITLE2=Shannon Noll - Galleries Of Pink Galahs
TTITLE3=Kasey Chambers - Cootamundra Wattle
TTITLE4=James Reyne - Chandelier Of Stars
TTITLE5=Sara Storer and Greg Storer - Paint Me A Wheelbarrow
TTITLE6=Songbirds - Tubbo Station
TTITLE7=Ash Grunwald - You And My Guitar
TTITLE8=Ami Williamson - Truckie's Wife
TTITLE9=Troy Cassar-Daley - Raining On The Rock
TTITLE10=The Ordinary Fear Of God - Wintergreen
TTITLE11=Adam Harvey - Hillbilly Road
TTITLE12=Tommy Emmanuel - Old Man Emu
EXTD=
EXTT0=
EXTT1=
EXTT2=
EXTT3=
EXTT4=
EXTT5=
EXTT6=
EXTT7=
EXTT8=
EXTT9=
EXTT10=
EXTT11=
EXTT12=
PLAYORDER=
